<?xml version="1.0" encoding="UTF-8"?>
<svg xmlns="http://www.w3.org/2000/svg" xmlns:xlink="http://www.w3.org/1999/xlink" width="12pt" height="12pt" viewBox="0 0 12 12" version="1.1">
<g id="surface1">
<path style=" stroke:none;fill-rule:nonzero;fill:rgb(84.313725%,88.235294%,94.901961%);fill-opacity:1;" d="M 5.386719 10.269531 C 5.113281 10.230469 4.847656 10.167969 4.589844 10.078125 L 4.832031 9.367188 C 5.046875 9.441406 5.269531 9.496094 5.492188 9.527344 Z M 7.015625 10.191406 L 6.839844 9.464844 C 7.058594 9.410156 7.273438 9.335938 7.480469 9.242188 L 7.792969 9.925781 C 7.542969 10.039062 7.285156 10.128906 7.015625 10.191406 Z M 3.175781 9.261719 C 2.96875 9.082031 2.777344 8.882812 2.609375 8.667969 L 3.199219 8.203125 C 3.339844 8.382812 3.496094 8.546875 3.667969 8.695312 Z M 9.121094 8.976562 L 8.578125 8.460938 C 8.734375 8.296875 8.875 8.117188 8.996094 7.925781 L 9.628906 8.332031 C 9.480469 8.5625 9.308594 8.777344 9.121094 8.976562 Z M 1.859375 7.214844 C 1.785156 6.953125 1.734375 6.683594 1.707031 6.410156 L 2.453125 6.339844 C 2.476562 6.5625 2.519531 6.789062 2.582031 7.003906 Z M 10.238281 6.816406 L 9.5 6.675781 C 9.542969 6.453125 9.5625 6.226562 9.5625 6 L 10.3125 6 C 10.3125 6.273438 10.289062 6.546875 10.238281 6.816406 Z M 2.582031 4.996094 L 1.859375 4.785156 C 1.9375 4.523438 2.039062 4.269531 2.164062 4.023438 L 2.832031 4.367188 C 2.730469 4.570312 2.644531 4.78125 2.582031 4.996094 Z M 3.667969 3.308594 L 3.175781 2.742188 C 3.382812 2.5625 3.605469 2.402344 3.84375 2.265625 L 4.21875 2.914062 C 4.023438 3.027344 3.839844 3.160156 3.667969 3.308594 Z M 8.066406 3.101562 C 7.882812 2.96875 7.6875 2.855469 7.480469 2.761719 L 7.792969 2.078125 C 8.042969 2.191406 8.28125 2.332031 8.503906 2.488281 Z M 5.492188 2.476562 L 5.386719 1.734375 C 5.65625 1.695312 5.933594 1.683594 6.207031 1.695312 L 6.171875 2.445312 C 5.945312 2.433594 5.71875 2.445312 5.492188 2.476562 Z M 5.492188 2.476562 "/>
<path style=" stroke:none;fill-rule:nonzero;fill:rgb(90.588235%,43.137255%,32.941176%);fill-opacity:1;" d="M 12 1.5 L 9.375 1.5 L 9.375 4.125 L 10.125 4.125 L 10.125 2.765625 C 11.746094 4.847656 11.558594 7.8125 9.6875 9.675781 C 7.816406 11.535156 4.851562 11.707031 2.773438 10.078125 C 0.699219 8.445312 0.171875 5.519531 1.539062 3.261719 C 2.910156 1.007812 5.75 0.128906 8.15625 1.214844 C 8.335938 1.300781 8.554688 1.230469 8.648438 1.054688 C 8.699219 0.960938 8.707031 0.851562 8.671875 0.753906 C 8.636719 0.652344 8.5625 0.574219 8.464844 0.53125 C 6.042969 -0.5625 3.1875 0.0703125 1.453125 2.085938 C -0.28125 4.101562 -0.484375 7.019531 0.960938 9.253906 C 2.402344 11.488281 5.144531 12.507812 7.695312 11.753906 C 10.246094 11.003906 12 8.660156 12 6 C 12.003906 4.636719 11.535156 3.3125 10.675781 2.25 L 12 2.25 Z M 12 1.5 "/>
<path style=" stroke:none;fill-rule:nonzero;fill:rgb(90.588235%,43.137255%,32.941176%);fill-opacity:1;" d="M 6.65625 6 C 6.65625 5.820312 6.804688 5.671875 6.988281 5.671875 L 8.613281 5.671875 C 8.4375 4.296875 7.226562 3.292969 5.84375 3.382812 C 4.460938 3.46875 3.382812 4.613281 3.382812 6 C 3.382812 7.386719 4.460938 8.535156 5.84375 8.621094 C 7.226562 8.707031 8.4375 7.703125 8.613281 6.328125 L 6.988281 6.328125 C 6.804688 6.328125 6.65625 6.183594 6.65625 6 Z M 6.65625 6 "/>
</g>
</svg>
